# xmcd
#
# Track frame offsets:
# 150
# 27462
# 50702
# 66530
# 80467
#
# Disc length: 1248 seconds
#
# Revision: 0
# Processed by: cddbd v1.4PL0 Copyright (c) Steve Scherf et al.
# Submitted via: Audion 2.6.0 (http://www.panic.com/audion/)
#
DISCID=4504de05
DTITLE=Eraserheads - Bananatype
DYEAR=1900
DGENRE=
TTITLE0=Harana
TTITLE1=Policewoman
TTITLE2=Bananatype
TTITLE3=I Can't Remember You
TTITLE4=Tikman
EXTD=
EXTT0=
EXTT1=
EXTT2=
EXTT3=
EXTT4=
PLAYORDER=
